<svg version="1.1" id="Layer_1" xmlns="http://www.w3.org/2000/svg" xmlns:xlink="http://www.w3.org/1999/xlink" x="0px" y="0px"
	 width="100%" viewBox="0 0 512 512" enable-background="new 0 0 512 512" xml:space="preserve">
<path fill="#020202" opacity="1.000000" stroke="none" 
	d="
M282.000000,513.000000 
	C188.022812,513.000000 94.545624,513.000000 1.034216,513.000000 
	C1.034216,342.397797 1.034216,171.795563 1.034216,1.096670 
	C171.560532,1.096670 342.121155,1.096670 512.840881,1.096670 
	C512.840881,171.666550 512.840881,342.333252 512.840881,513.000000 
	C436.128876,513.000000 359.314423,513.000000 282.000000,513.000000 
M483.403412,89.500198 
	C483.404144,74.506744 483.429962,59.513229 483.396759,44.519852 
	C483.374847,34.636318 480.711700,31.938744 471.085663,31.937992 
	C406.613495,31.932961 342.141296,31.933107 277.669128,31.937937 
	C268.373383,31.938633 265.011597,35.226131 265.009857,44.410713 
	C264.997681,108.882889 264.996674,173.355072 265.011444,237.827240 
	C265.013397,246.382660 268.638672,250.001709 277.064423,250.002106 
	C341.369995,250.005096 405.676086,249.879120 469.980621,250.138062 
	C479.639130,250.176926 483.579712,246.278290 483.525482,236.436569 
	C483.257385,187.792374 483.403442,139.145889 483.403412,89.500198 
M248.684616,242.566116 
	C248.785324,241.574234 248.973969,240.582382 248.974213,239.590485 
	C248.989975,174.108002 249.008972,108.625504 248.967239,43.143051 
	C248.962448,35.620747 245.084290,31.944584 237.524033,31.943195 
	C172.374771,31.931223 107.225494,31.931950 42.076229,31.941242 
	C33.653008,31.942444 30.608629,34.852013 30.603584,43.353989 
	C30.564934,108.503204 30.569527,173.652466 30.616627,238.801682 
	C30.622370,246.745163 34.033707,249.999710 41.875397,250.000397 
	C107.024666,250.006119 172.173981,249.969452 237.323120,250.067352 
	C242.644043,250.075333 246.262527,248.180435 248.684616,242.566116 
M247.250000,477.482971 
	C247.832123,475.109985 248.919357,472.737701 248.922745,470.363892 
	C249.014847,405.539581 249.008255,340.715088 248.981079,275.890656 
	C248.977692,267.816284 245.073212,264.002380 237.045181,264.001495 
	C172.220749,263.994476 107.396301,263.994843 42.571865,263.999756 
	C33.948376,264.000427 30.609516,267.119263 30.604998,275.574921 
	C30.570267,340.565979 30.573051,405.557068 30.611740,470.548126 
	C30.616615,478.738708 34.028042,482.056549 42.120068,482.057892 
	C107.111145,482.068695 172.102264,482.041473 237.093246,482.119537 
	C241.035553,482.124268 244.293076,481.238281 247.250000,477.482971 
M265.003357,310.500000 
	C265.003357,363.644958 264.994476,416.789917 265.012573,469.934875 
	C265.015442,478.403168 268.710297,482.059235 277.168671,482.060272 
	C341.975464,482.068207 406.782288,482.068146 471.589081,482.059570 
	C480.064911,482.058472 483.378021,478.863434 483.382965,470.331665 
	C483.420563,405.524872 483.420624,340.718079 483.388580,275.911285 
	C483.384216,267.098511 480.122467,263.999725 471.240936,263.999146 
	C406.600739,263.994934 341.960541,263.995026 277.320343,263.999786 
	C268.674774,264.000427 265.029053,267.697052 265.009277,276.513519 
	C264.984650,287.508972 265.003357,298.504517 265.003357,310.500000 
z"/>
<path fill="#FFFFFF" opacity="1.000000" stroke="none" 
	d="
M483.403442,90.000206 
	C483.403442,139.145889 483.257385,187.792374 483.525482,236.436569 
	C483.579712,246.278290 479.639130,250.176926 469.980621,250.138062 
	C405.676086,249.879120 341.369995,250.005096 277.064423,250.002106 
	C268.638672,250.001709 265.013397,246.382660 265.011444,237.827240 
	C264.996674,173.355072 264.997681,108.882889 265.009857,44.410713 
	C265.011597,35.226131 268.373383,31.938633 277.669128,31.937937 
	C342.141296,31.933107 406.613495,31.932961 471.085663,31.937992 
	C480.711700,31.938744 483.374847,34.636318 483.396759,44.519852 
	C483.429962,59.513229 483.404144,74.506744 483.403442,90.000206 
z"/>
<path fill="#FFFFFF" opacity="1.000000" stroke="none" 
	d="
M248.511078,242.943878 
	C246.262527,248.180435 242.644043,250.075333 237.323120,250.067352 
	C172.173981,249.969452 107.024666,250.006119 41.875397,250.000397 
	C34.033707,249.999710 30.622370,246.745163 30.616627,238.801682 
	C30.569527,173.652466 30.564934,108.503204 30.603584,43.353989 
	C30.608629,34.852013 33.653008,31.942444 42.076229,31.941242 
	C107.225494,31.931950 172.374771,31.931223 237.524033,31.943195 
	C245.084290,31.944584 248.962448,35.620747 248.967239,43.143051 
	C249.008972,108.625504 248.989975,174.108002 248.974213,239.590485 
	C248.973969,240.582382 248.785324,241.574234 248.511078,242.943878 
z"/>
<path fill="#FFFFFF" opacity="1.000000" stroke="none" 
	d="
M247.027084,477.808807 
	C244.293076,481.238281 241.035553,482.124268 237.093246,482.119537 
	C172.102264,482.041473 107.111145,482.068695 42.120068,482.057892 
	C34.028042,482.056549 30.616615,478.738708 30.611740,470.548126 
	C30.573051,405.557068 30.570267,340.565979 30.604998,275.574921 
	C30.609516,267.119263 33.948376,264.000427 42.571865,263.999756 
	C107.396301,263.994843 172.220749,263.994476 237.045181,264.001495 
	C245.073212,264.002380 248.977692,267.816284 248.981079,275.890656 
	C249.008255,340.715088 249.014847,405.539581 248.922745,470.363892 
	C248.919357,472.737701 247.832123,475.109985 247.027084,477.808807 
z"/>
<path fill="#FFFFFF" opacity="1.000000" stroke="none" 
	d="
M265.003357,310.000000 
	C265.003357,298.504517 264.984650,287.508972 265.009277,276.513519 
	C265.029053,267.697052 268.674774,264.000427 277.320343,263.999786 
	C341.960541,263.995026 406.600739,263.994934 471.240936,263.999146 
	C480.122467,263.999725 483.384216,267.098511 483.388580,275.911285 
	C483.420624,340.718079 483.420563,405.524872 483.382965,470.331665 
	C483.378021,478.863434 480.064911,482.058472 471.589081,482.059570 
	C406.782288,482.068146 341.975464,482.068207 277.168671,482.060272 
	C268.710297,482.059235 265.015442,478.403168 265.012573,469.934875 
	C264.994476,416.789917 265.003357,363.644958 265.003357,310.000000 
z"/>
</svg>